<?xml version="1.0" standalone="no"?>
<!DOCTYPE svg PUBLIC "-//W3C//DTD SVG 20010904//EN"
 "http://www.w3.org/TR/2001/REC-SVG-20010904/DTD/svg10.dtd">
<svg version="1.0" xmlns="http://www.w3.org/2000/svg"
 width="400.000000pt" height="400.000000pt" viewBox="0 0 400.000000 400.000000"
 preserveAspectRatio="xMidYMid meet">

<g transform="translate(0.000000,400.000000) scale(0.100000,-0.100000)"
fill="#000000" stroke="none">
<path d="M2433 3861 c-134 -22 -292 -93 -413 -186 -131 -101 -283 -283 -410
-491 -40 -66 -74 -120 -75 -122 -2 -2 -31 8 -65 22 -180 73 -378 73 -523 0
-71 -36 -112 -67 -180 -137 -156 -159 -277 -454 -342 -831 -22 -128 -21 -133
17 -141 18 -4 39 -12 46 -18 17 -13 32 7 32 43 1 96 71 241 151 313 69 63 158
97 249 97 70 0 210 -31 286 -63 l59 -25 5 41 c9 73 79 92 234 62 87 -16 244
-69 361 -120 81 -36 198 -90 267 -123 l78 -37 0 -88 c0 -49 -5 -121 -10 -160
-6 -40 -15 -106 -21 -147 -6 -41 -22 -118 -36 -170 -14 -52 -28 -104 -31 -115
-2 -11 -8 -24 -12 -30 -3 -5 -15 -32 -25 -59 -70 -191 -237 -368 -396 -419 -9
-3 -20 -28 -28 -63 -22 -97 -81 -263 -127 -358 -83 -167 -195 -311 -306 -392
-27 -20 -47 -39 -44 -42 10 -9 171 74 257 133 164 113 325 260 572 527 132
142 248 238 347 288 65 33 162 60 214 60 40 0 142 -35 169 -58 22 -20 22 -10
-4 41 -25 48 -142 168 -189 192 l-31 16 51 49 c97 94 150 267 150 486 0 63 3
114 8 114 4 0 39 -9 77 -19 186 -52 325 -148 402 -280 59 -99 80 -273 48 -406
-14 -59 -14 -60 11 -80 13 -11 33 -33 44 -50 l19 -29 60 124 c142 293 205 603
167 825 -59 343 -283 547 -715 649 -56 13 -104 26 -107 28 -14 14 -35 203 -36
313 0 132 19 243 56 313 21 40 74 90 115 110 56 27 187 22 280 -11 77 -28 91
-28 91 3 0 10 11 32 25 49 l26 30 -78 66 c-151 129 -288 206 -440 249 -99 28
-247 40 -330 27z"/>
<path d="M3412 3516 c-108 -39 -167 -185 -117 -290 81 -170 322 -168 396 2 48
111 -5 241 -118 289 -39 16 -116 16 -161 -1z"/>
<path d="M1364 2339 c-11 -6 -27 -25 -36 -42 -8 -18 -30 -58 -48 -90 -26 -48
-33 -71 -35 -125 -2 -74 -46 -213 -114 -367 -38 -85 -39 -90 -23 -108 14 -16
26 -18 77 -14 87 9 176 35 202 59 13 12 23 17 23 11 0 -28 -105 -83 -160 -83
-25 0 -25 -2 6 -47 23 -34 25 -44 19 -95 -7 -71 3 -78 107 -78 95 0 198 23
257 55 l46 26 -32 -30 c-39 -37 -115 -61 -208 -67 -38 -3 -83 -7 -100 -9 l-30
-5 -2 -141 c-3 -161 6 -197 59 -229 45 -27 111 -26 207 5 178 58 314 177 405
355 94 184 140 389 148 655 l3 110 -120 60 c-329 165 -565 235 -651 194z m205
-193 c9 -8 48 -31 86 -51 84 -43 41 -38 -55 7 -79 37 -132 34 -197 -12 -46
-32 -58 -27 -20 8 57 54 152 78 186 48z m6 -150 c28 -13 59 -31 70 -41 19 -16
19 -16 -10 -10 -16 3 -65 9 -107 12 -62 4 -83 2 -102 -11 -45 -29 -49 -16 -8
30 44 51 82 56 157 20z"/>
<path d="M285 1888 c-74 -38 -114 -100 -122 -187 -4 -48 -1 -64 24 -111 41
-77 94 -113 177 -118 35 -2 79 1 98 7 75 25 149 132 148 216 -1 39 -34 113
-68 148 -64 68 -175 88 -257 45z"/>
<path d="M3045 1136 c-55 -25 -77 -51 -95 -113 -10 -34 -10 -49 4 -91 54 -162
284 -156 327 10 22 82 -17 164 -95 199 -54 24 -81 24 -141 -5z"/>
</g>
</svg>
